<svg width="123" height="49" viewBox="0 0 123 49" fill="none" xmlns="http://www.w3.org/2000/svg">
<path d="M60.7472 32.6272C61.494 32.6451 62.2195 32.5638 62.9235 32.3833C63.6343 32.203 64.2728 31.9222 64.839 31.5411C65.4054 31.1528 65.8587 30.6596 66.1992 30.0615C66.5466 29.4566 66.7301 28.7454 66.7497 27.9281C66.7681 27.1602 66.6441 26.5227 66.3778 26.0158C66.1182 25.509 65.7782 25.099 65.3578 24.7858C64.9443 24.4657 64.5087 24.2156 64.0511 24.0354C63.5937 23.8482 63.1761 23.6972 62.7985 23.5824L60.2697 22.8026C59.9595 22.7106 59.6565 22.5975 59.3608 22.4635C59.0651 22.3296 58.8213 22.158 58.6293 21.949C58.4375 21.7329 58.3455 21.4593 58.3535 21.1281C58.3621 20.7688 58.4884 20.4617 58.7322 20.2067C58.9829 19.9518 59.3 19.7621 59.6834 19.6373C60.0737 19.5057 60.486 19.4521 60.9202 19.4767C61.585 19.5138 62.1911 19.7328 62.7386 20.1336C63.286 20.5345 63.6323 21.1068 63.7775 21.8505L66.7842 21.3939C66.4655 19.9552 65.8061 18.8431 64.806 18.0578C63.8058 17.2724 62.5456 16.8509 61.0253 16.7933C60.0207 16.7621 59.1003 16.9022 58.264 17.2134C57.4278 17.5247 56.7537 18.0126 56.2419 18.677C55.73 19.3415 55.4619 20.1846 55.4373 21.2062C55.4199 21.9319 55.5209 22.5371 55.7402 23.0217C55.9665 23.4995 56.2527 23.887 56.5988 24.1844C56.9449 24.4817 57.3028 24.7123 57.6725 24.8763C58.049 25.0404 58.3788 25.1682 58.6619 25.2596L62.4428 26.5135C63.0089 26.7034 63.3837 26.9344 63.5674 27.2067C63.7512 27.472 63.8394 27.7596 63.832 28.0696C63.8219 28.4923 63.6741 28.8448 63.3889 29.127C63.1103 29.4093 62.7555 29.6194 62.3242 29.7571C61.8929 29.8947 61.4498 29.9581 60.995 29.9472C60.1802 29.9277 59.4595 29.6742 58.8326 29.1868C58.2057 28.6995 57.801 28.0165 57.6182 27.138L54.7154 27.5124C54.84 28.5447 55.1718 29.4409 55.7106 30.2011C56.2563 30.9544 56.9589 31.5423 57.8183 31.9647C58.6846 32.3803 59.6609 32.6011 60.7472 32.6272Z" fill="white"/>
<path d="M69.3952 19.5109L72.1652 19.5774L72.226 17.0409L69.456 16.9745L69.3952 19.5109ZM69.0832 32.51L71.8532 32.5765L72.1271 21.1626L69.3571 21.0961L69.0832 32.51Z" fill="white"/>
<path d="M75.11 32.6547L77.88 32.7211L78.2528 17.1856L75.4828 17.1191L75.11 32.6547Z" fill="white"/>
<path d="M81.4487 19.8002L84.2187 19.8666L84.2796 17.3302L81.5096 17.2637L81.4487 19.8002ZM81.1367 32.7993L83.9068 32.8658L84.1807 21.4519L81.4107 21.3854L81.1367 32.7993Z" fill="white"/>
<path d="M91.7998 33.3725C93.0761 33.4031 94.1567 33.1012 95.0415 32.4668C95.9262 31.8324 96.5393 30.9131 96.8807 29.7087L94.0643 29.0278C93.8881 29.5735 93.6336 29.9903 93.3006 30.2784C92.9676 30.5665 92.4888 30.7031 91.8642 30.6881C91.0291 30.668 90.4051 30.3464 89.9921 29.7232C89.586 29.093 89.3949 28.2813 89.4187 27.2878C89.4416 26.3367 89.6609 25.5489 90.0767 24.9244C90.4994 24.293 91.1487 23.9878 92.0245 24.0088C92.5337 24.0211 92.9846 24.1975 93.3772 24.5383C93.7766 24.8792 94.0507 25.3476 94.1994 25.9433L96.9877 25.2489C96.7715 24.0664 96.2303 23.1263 95.3639 22.4288C94.5045 21.7243 93.4264 21.3566 92.1297 21.3254C91.0094 21.2986 90.0323 21.5359 89.1983 22.0376C88.3643 22.5393 87.7089 23.2391 87.2322 24.137C86.7623 25.0352 86.5135 26.062 86.4858 27.2175C86.4584 28.3588 86.651 29.3892 87.0637 30.3085C87.4764 31.2278 88.0838 31.9615 88.8858 32.5094C89.6879 33.0574 90.6592 33.3451 91.7998 33.3725Z" fill="white"/>
<path d="M103.478 33.6527C104.578 33.6791 105.551 33.4487 106.398 32.9615C107.253 32.4673 107.925 31.775 108.415 30.8844C108.912 29.9869 109.175 28.9463 109.203 27.7627C109.231 26.5861 109.022 25.5412 108.575 24.6281C108.129 23.708 107.491 22.9807 106.661 22.4461C105.838 21.9118 104.874 21.6313 103.767 21.6047C102.681 21.5787 101.714 21.8093 100.867 22.2965C100.019 22.7837 99.3472 23.4761 98.8502 24.3736C98.3533 25.264 98.0906 26.3046 98.062 27.4953C98.0337 28.6719 98.2396 29.7202 98.6794 30.6401C99.1262 31.5532 99.761 32.277 100.584 32.8113C101.406 33.3457 102.371 33.6262 103.478 33.6527ZM103.542 30.9683C102.68 30.9477 102.032 30.6325 101.598 30.0229C101.172 29.4063 100.97 28.5873 100.995 27.5657C101.019 26.5722 101.249 25.7741 101.684 25.1712C102.127 24.5615 102.8 24.2674 103.703 24.2891C104.578 24.3101 105.23 24.6289 105.656 25.2454C106.09 25.8621 106.295 26.6777 106.27 27.6923C106.247 28.6716 106.007 29.4695 105.55 30.086C105.101 30.6956 104.432 30.9897 103.542 30.9683Z" fill="white"/>
<path d="M111.285 33.5229L114.096 33.5903L114.235 27.7988C114.252 27.0872 114.341 26.5183 114.5 26.0921C114.667 25.6661 114.871 25.3467 115.114 25.134C115.357 24.9143 115.615 24.7689 115.889 24.6979C116.162 24.6269 116.418 24.5943 116.655 24.6C117.246 24.6142 117.698 24.7625 118.01 25.0449C118.329 25.3275 118.556 25.6748 118.688 26.0869C118.821 26.499 118.896 26.9096 118.913 27.3189C118.931 27.7212 118.937 28.0527 118.93 28.3134L118.801 33.7032L121.612 33.7707L121.765 27.3662C121.77 27.176 121.764 26.8727 121.747 26.4564C121.729 26.04 121.662 25.5802 121.545 25.0769C121.428 24.5665 121.223 24.0751 120.929 23.6028C120.641 23.1306 120.229 22.7365 119.693 22.4205C119.157 22.1045 118.458 21.9362 117.596 21.9155C116.802 21.8964 116.106 22.0172 115.509 22.2778C114.912 22.5384 114.407 22.8929 113.996 23.3412L114.024 22.1681L111.559 22.109L111.285 33.5229Z" fill="white"/>
<path d="M10.7141 23.5219L4.85378 13.3355L23.9704 1.1049L23.1956 12.1895L10.7141 23.5219Z" fill="url(#paint0_linear_3520_7548)"/>
<path d="M23.1956 12.1895L23.9704 1.1049L43.0755 10.5517L38.5768 28.4204L12.5449 32.0255L10.7141 23.5219L23.1956 12.1895Z" fill="url(#paint1_linear_3520_7548)"/>
<path d="M31.0148 46.7443L12.5449 32.0255L38.5768 28.4204L43.0386 33.286L31.0148 46.7443Z" fill="url(#paint2_linear_3520_7548)"/>
<path d="M38.5768 28.4204L43.0386 33.286L47.4232 20.1731L43.0755 10.5517L38.5768 28.4204Z" fill="url(#paint3_linear_3520_7548)"/>
<path d="M12.5449 32.0255L31.0148 46.7443L12.2659 43.6507L0.43117 28.0337L12.5449 32.0255Z" fill="url(#paint4_linear_3520_7548)"/>
<path d="M4.85378 13.3355L0.43117 28.0337L12.5449 32.0255L10.7141 23.5219L4.85378 13.3355Z" fill="url(#paint5_linear_3520_7548)"/>
<path d="M31.0153 46.7443L12.5454 32.0255L38.5773 28.4204L43.0391 33.286L31.0153 46.7443Z" fill="black" fill-opacity="0.17"/>
<path d="M38.5763 28.4205L43.0381 33.2861L47.4226 20.1732L43.075 10.5518L38.5763 28.4205Z" fill="black" fill-opacity="0.1"/>
<path d="M12.545 32.0255L31.0148 46.7443L12.2659 43.6507L0.431183 28.0337L12.545 32.0255Z" fill="black" fill-opacity="0.23"/>
<path d="M4.85377 13.3355L0.431157 28.0337L12.5449 32.0255L10.7141 23.522L4.85377 13.3355Z" fill="#C0C0C0" fill-opacity="0.05"/>
<path d="M10.7141 23.5219L4.85378 13.3355L23.9704 1.1049L23.1956 12.1895L10.7141 23.5219Z" fill="white" fill-opacity="0.15"/>
<path fill-rule="evenodd" clip-rule="evenodd" d="M10.7141 23.5219L23.1956 12.1895L23.9704 1.1049L4.85378 13.3355L10.7141 23.5219ZM10.7888 23.0333L22.9004 12.0369L23.6229 1.69931L5.27036 13.4411L10.7888 23.0333Z" fill="white" fill-opacity="0.15"/>
<path fill-rule="evenodd" clip-rule="evenodd" d="M23.4909 12.3422L11.0515 23.6363L12.7818 31.6728L38.3336 28.1342L42.7164 10.7256L24.2424 1.59083L23.4909 12.3422ZM23.1956 12.1895L10.7141 23.5219L12.5449 32.0255L38.5768 28.4204L43.0755 10.5517L23.9704 1.1049L23.1956 12.1895Z" fill="white" fill-opacity="0.15"/>
<path fill-rule="evenodd" clip-rule="evenodd" d="M30.9805 46.317L42.6197 33.2893L38.4627 28.7561L13.3145 32.2387L30.9805 46.317ZM31.0148 46.7443L43.0386 33.286L38.5768 28.4204L12.5449 32.0255L31.0148 46.7443Z" fill="white" fill-opacity="0.15"/>
<path fill-rule="evenodd" clip-rule="evenodd" d="M43.0386 33.286L47.4232 20.1731L43.0755 10.5517L38.5768 28.4204L43.0386 33.286ZM38.9151 28.3292L42.9148 32.6908L47.0941 20.1916L43.1573 11.4793L38.9151 28.3292Z" fill="white" fill-opacity="0.15"/>
<path fill-rule="evenodd" clip-rule="evenodd" d="M12.4013 32.311L1.28557 28.6481L12.4321 43.3569L29.8735 46.2348L12.4013 32.311ZM12.5449 32.0255L0.43117 28.0337L12.2659 43.6507L31.0148 46.7443L12.5449 32.0255Z" fill="white" fill-opacity="0.15"/>
<path fill-rule="evenodd" clip-rule="evenodd" d="M0.813031 27.8266L12.1311 31.5562L10.427 23.6414L4.94141 14.1063L0.813031 27.8266ZM0.43117 28.0337L12.5449 32.0255L10.7141 23.5219L4.85378 13.3355L0.43117 28.0337Z" fill="white" fill-opacity="0.15"/>
<path d="M24.2038 20.7616L27.6556 20.8444C27.6814 17.6926 25.2382 15.4575 21.4453 15.3665C17.7106 15.2768 14.9227 17.3519 14.8623 20.5633C14.7914 23.1699 16.5272 24.7058 19.388 25.4913L21.2313 26.0192C23.0749 26.5298 24.0931 27.107 24.0728 28.2984C24.0334 29.593 22.8312 30.4451 21.0012 30.4012C19.1297 30.3563 17.8038 29.4262 17.7298 27.6539L14.2447 27.5702C14.2444 31.3963 16.8337 33.4363 20.9676 33.5355C25.1265 33.6354 27.6215 31.631 27.7075 28.3943C27.7698 25.4506 25.6696 23.8369 22.7251 23.0753L21.2037 22.6588C19.7316 22.2693 18.506 21.6699 18.5614 20.4016C18.5887 19.2622 19.582 18.4483 21.3454 18.4906C23.0671 18.5319 24.104 19.3687 24.2038 20.7616Z" fill="white"/>
<path d="M33.0081 21.2692L29.7909 21.192L29.4958 33.4897L32.7129 33.567L33.0081 21.2692Z" fill="white"/>
<path d="M32.0418 11.5367L30.8643 11.5084L29.3743 12.437L29.3466 13.5899L30.7247 12.7398L30.7594 12.7406L30.6415 17.6555L31.8942 17.6856L32.0418 11.5367Z" fill="white"/>
<path d="M33.2387 16.6364L36.0827 16.7046L36.0567 17.7855L37.2545 17.8142L37.2804 16.7334L38.0153 16.751L38.0403 15.7092L37.3054 15.6915L37.4021 11.6653L35.834 11.6277L33.2633 15.6125L33.2387 16.6364ZM36.1308 15.6633L34.5251 15.6248L34.5263 15.5768L36.1471 13.0531L36.1934 13.0543L36.1308 15.6633Z" fill="white"/>
<defs>
<linearGradient id="paint0_linear_3520_7548" x1="0.542699" y1="23.3866" x2="47.3191" y2="24.5092" gradientUnits="userSpaceOnUse">
<stop stop-color="#6366F1"/>
<stop offset="0.5" stop-color="#8B5CF6"/>
<stop offset="1" stop-color="#D946EF"/>
</linearGradient>
<linearGradient id="paint1_linear_3520_7548" x1="0.542699" y1="23.3866" x2="47.3191" y2="24.5092" gradientUnits="userSpaceOnUse">
<stop stop-color="#6366F1"/>
<stop offset="0.5" stop-color="#8B5CF6"/>
<stop offset="1" stop-color="#D946EF"/>
</linearGradient>
<linearGradient id="paint2_linear_3520_7548" x1="0.542699" y1="23.3866" x2="47.3191" y2="24.5092" gradientUnits="userSpaceOnUse">
<stop stop-color="#6366F1"/>
<stop offset="0.5" stop-color="#8B5CF6"/>
<stop offset="1" stop-color="#D946EF"/>
</linearGradient>
<linearGradient id="paint3_linear_3520_7548" x1="0.542699" y1="23.3866" x2="47.3191" y2="24.5092" gradientUnits="userSpaceOnUse">
<stop stop-color="#6366F1"/>
<stop offset="0.5" stop-color="#8B5CF6"/>
<stop offset="1" stop-color="#D946EF"/>
</linearGradient>
<linearGradient id="paint4_linear_3520_7548" x1="0.542699" y1="23.3866" x2="47.3191" y2="24.5092" gradientUnits="userSpaceOnUse">
<stop stop-color="#6366F1"/>
<stop offset="0.5" stop-color="#8B5CF6"/>
<stop offset="1" stop-color="#D946EF"/>
</linearGradient>
<linearGradient id="paint5_linear_3520_7548" x1="0.542699" y1="23.3866" x2="47.3191" y2="24.5092" gradientUnits="userSpaceOnUse">
<stop stop-color="#6366F1"/>
<stop offset="0.5" stop-color="#8B5CF6"/>
<stop offset="1" stop-color="#D946EF"/>
</linearGradient>
</defs>
</svg>
